<svg width="54" height="53" viewBox="0 0 54 53" fill="none" xmlns="http://www.w3.org/2000/svg">
<path d="M33.6216 50.5068V41.8919H16.7365C14.4392 41.8919 12.8311 41.5473 11.9122 40.7433C10.9932 40.0541 10.6486 38.6757 10.6486 36.723V29.8311H26.0405L26.7297 21.2162H10.6486V9.61487H33.6216V1H1V37.4122C1 42.2365 2.14865 45.6824 4.33108 47.6351C6.51351 49.5878 10.5338 50.5068 16.0473 50.5068H33.6216ZM47.4054 51.4257C49.7027 51.4257 51.1959 51.0811 52 50.277C52.6892 49.5879 53.0338 47.9797 53.0338 45.6824C53.0338 43.3852 52.6892 41.8919 51.8851 41.2027C51.1959 40.5135 49.7027 40.0541 47.4054 40.0541C45.1081 40.0541 43.6149 40.3987 42.8108 41.0879C42.1216 41.777 41.6622 43.2703 41.6622 45.6824C41.6622 47.9797 42.0068 49.473 42.8108 50.277C43.5 51.0811 45.1081 51.4257 47.4054 51.4257Z" fill="white" stroke="white" stroke-width="1.87813" stroke-miterlimit="10"/>
</svg>
